<?xml version="1.0" encoding="UTF-8" standalone="no"?>
<!-- Created with Inkscape (http://www.inkscape.org/) -->

<svg
   xmlns:dc="http://purl.org/dc/elements/1.1/"
   xmlns:cc="http://creativecommons.org/ns#"
   xmlns:rdf="http://www.w3.org/1999/02/22-rdf-syntax-ns#"
   xmlns:svg="http://www.w3.org/2000/svg"
   xmlns="http://www.w3.org/2000/svg"
   xmlns:xlink="http://www.w3.org/1999/xlink"
   xmlns:sodipodi="http://sodipodi.sourceforge.net/DTD/sodipodi-0.dtd"
   xmlns:inkscape="http://www.inkscape.org/namespaces/inkscape"
   version="1.1"
   width="159.14917"
   height="96.15625"
   id="svg7384"
   inkscape:version="0.48.4 r9939"
   sodipodi:docname="radio-icon-playing.svg">
  <sodipodi:namedview
     pagecolor="#ffffff"
     bordercolor="#666666"
     borderopacity="1"
     objecttolerance="10"
     gridtolerance="10"
     guidetolerance="10"
     inkscape:pageopacity="0"
     inkscape:pageshadow="2"
     inkscape:window-width="1600"
     inkscape:window-height="838"
     id="namedview24"
     showgrid="false"
     fit-margin-top="0"
     fit-margin-left="0"
     fit-margin-right="0"
     fit-margin-bottom="0"
     inkscape:zoom="5.661702"
     inkscape:cx="80.080152"
     inkscape:cy="47.761569"
     inkscape:window-x="0"
     inkscape:window-y="27"
     inkscape:window-maximized="1"
     inkscape:current-layer="svg7384" />
  <title
     id="title9167">Gnome Symbolic Icon Theme</title>
  <metadata
     id="metadata90">
    <rdf:RDF>
      <cc:Work
         rdf:about="">
        <dc:format>image/svg+xml</dc:format>
        <dc:type
           rdf:resource="http://purl.org/dc/dcmitype/StillImage" />
        <dc:title>Gnome Symbolic Icon Theme</dc:title>
      </cc:Work>
    </rdf:RDF>
  </metadata>
  <defs
     id="defs7386" />
  <g
     transform="translate(-109.64276,-572.4375)"
     id="layer9"
     style="display:inline" />
  <g
     transform="translate(-109.64276,-572.4375)"
     id="layer10" />
  <g
     transform="translate(-109.64276,-572.4375)"
     id="layer11"
     style="display:inline" />
  <g
     transform="translate(173.35745,56.5625)"
     id="layer1"
     style="display:none">
    <path
       d="m 4.2625534,6.1750293 c 0,0 1.1491587,-0.6278903 1.1863897,-1.6606918 C 5.4861331,3.4826637 4.4603025,2.976995 4.4672485,2.0317235 4.4736485,1.1539862 5.6337624,0.28329388 5.6337624,0.28329388"
       id="path4114"
       style="fill:none;stroke:#ffffff;stroke-width:1.29999995;stroke-linecap:butt;stroke-linejoin:miter;stroke-miterlimit:4;stroke-opacity:1;stroke-dasharray:none;display:inline"
       inkscape:connector-curvature="0" />
    <use
       transform="translate(3.3258259,0)"
       id="use4118"
       x="0"
       y="0"
       width="16"
       height="16"
       xlink:href="#path4114" />
  </g>
  <path
     inkscape:connector-curvature="0"
     style="fill:#bebebe;fill-opacity:1;fill-rule:nonzero;stroke:none"
     id="rect2985"
     d="M 111.0137,0 48.2012,22.875 c -0.39554,-0.01913 -0.78217,-0.0095 -1.1875,0 -6.14616,0.143571 -10.9844,3.613488 -10.78125,7.75 l 11.125,-0.25 11.15625,0.125 c 0.003,-0.128298 0.006,-0.278011 0,-0.40625 -0.10002,-2.036575 -1.41057,-3.85461 -3.4375,-5.15625 L 112.48245,4.0625 111.0137,0 z M 35.3262,30.96875 c -3.09546,0 -5.5625,2.498293 -5.5625,5.59375 l 0,54 c 0,3.095457 2.46704,5.59375 5.5625,5.59375 l 88.59375,0 c 3.09546,0 5.59375,-2.498293 5.59375,-5.59375 l 0,-54 c 0,-3.095457 -2.49829,-5.59375 -5.59375,-5.59375 l -88.59375,0 z M 95.48245,41.75 c 11.87412,0 21.5,9.625878 21.5,21.5 0,11.874122 -9.62588,21.5 -21.5,21.5 -11.874122,0 -21.5,-9.625878 -21.5,-21.5 0,-11.874122 9.625878,-21.5 21.5,-21.5 z m 0.03125,1.5 c -5.271848,0 -10.050392,2.045719 -13.625,5.375 l 27.25,0 c -3.56757,-3.335099 -8.34797,-5.375 -13.625,-5.375 z m -42.5,1.0625 a 6.6013284,5.906452 0 0 1 0.0312,0 6.6013284,5.906452 0 0 1 6.625,6.96875 l -0.0312,0.0625 a 6.6013284,5.906452 0 1 1 -6.625,-7.03125 z m 0.0937,1.125 a 5.2810627,4.7251616 0 1 0 5.28125,5.625 L 58.41985,51 a 5.2810627,4.7251616 0 0 0 -5.3125,-5.5625 z m 24.46875,8.96875 c -0.923686,1.868228 -1.57506,3.887896 -1.875,6.03125 l 39.59375,0 c -0.29994,-2.143354 -0.95368,-4.163022 -1.875,-6.03125 l -35.84375,0 z M 53.04495,64.8125 a 6.6013284,5.906452 0 0 1 6.625,6.96875 l -0.0312,0.09375 a 6.6013284,5.906452 0 1 1 -6.5938,-7.0625 z m 0.0312,1.15625 a 5.2810627,4.7251616 0 1 0 5.2813,5.65625 l 0.03125,-0.0625 a 5.2810627,4.7251616 0 0 0 -5.3125,-5.59375 z m 22.65625,0.25 c 0.353027,2.359356 1.116891,4.578028 2.21875,6.59375 l 35.09375,0 c 1.09903,-2.015722 1.86572,-4.234394 2.21875,-6.59375 l -39.53125,0 z m 6.93755,12.34375 c 3.474923,2.916762 7.955186,4.6875 12.84375,4.6875 4.88856,0 9.34519,-1.770738 12.8125,-4.6875 l -25.65625,0 z" />
  <g
     transform="translate(-109.64276,-572.4375)"
     id="layer13"
     style="display:inline" />
  <g
     transform="translate(-109.64276,-572.4375)"
     id="layer14" />
  <g
     transform="translate(-109.64276,-572.4375)"
     id="layer15"
     style="display:inline" />
  <g
     transform="translate(-109.64276,-572.4375)"
     id="g71291"
     style="display:inline" />
  <g
     transform="translate(-109.64276,-572.4375)"
     id="g4953"
     style="display:inline" />
  <g
     transform="translate(-109.64276,-572.4375)"
     id="layer12"
     style="display:inline" />
</svg>
